<svg width="27" height="27" viewBox="0 0 27 27" fill="none" xmlns="http://www.w3.org/2000/svg">
<path d="M26.7621 5.3642L18.5736 13.5L26.7621 21.6358C26.9102 21.3264 27 20.9844 27 20.6191V6.38086C27 6.01557 26.9102 5.67359 26.7621 5.3642Z" fill="white"/>
<path d="M24.6269 4.00781H2.37299C2.0077 4.00781 1.66572 4.09762 1.35632 4.24564L11.8221 14.6587C12.7475 15.5841 14.2524 15.5841 15.1777 14.6587L25.6436 4.24564C25.3342 4.09762 24.9922 4.00781 24.6269 4.00781Z" fill="white"/>
<path d="M0.237832 5.3642C0.0898067 5.67359 0 6.01557 0 6.38086V20.6191C0 20.9844 0.0898067 21.3265 0.237832 21.6358L8.42637 13.5L0.237832 5.3642Z" fill="white"/>
<path d="M17.455 14.6186L16.2963 15.7773C14.7544 17.3192 12.2454 17.3192 10.7035 15.7773L9.54486 14.6186L1.35632 22.7544C1.66572 22.9024 2.0077 22.9922 2.37299 22.9922H24.6269C24.9922 22.9922 25.3342 22.9024 25.6436 22.7544L17.455 14.6186Z" fill="white"/>
</svg>
